<svg fill="none" height="24" viewBox="0 0 24 25" width="24" xmlns="http://www.w3.org/2000/svg"><g><path d="M4.30794 20C3.80281 20 3.37524 19.825 3.02524 19.475C2.67524 19.125 2.50024 18.6974 2.50024 18.1922V6.8077C2.50024 6.30257 2.67524 5.875 3.02524 5.525C3.37524 5.175 3.80281 5 4.30794 5H19.6925C20.1976 5 20.6252 5.175 20.9752 5.525C21.3252 5.875 21.5002 6.30257 21.5002 6.8077V18.1922C21.5002 18.6974 21.3252 19.125 20.9752 19.475C20.6252 19.825 20.1976 20 19.6925 20H4.30794ZM4.30794 18.5H11.2502V6.49998H4.30794C4.23101 6.49998 4.16049 6.53203 4.09637 6.59613C4.03227 6.66024 4.00022 6.73077 4.00022 6.8077V18.1922C4.00022 18.2692 4.03227 18.3397 4.09637 18.4038C4.16049 18.4679 4.23101 18.5 4.30794 18.5ZM12.7502 18.5H19.6925C19.7694 18.5 19.84 18.4679 19.9041 18.4038C19.9682 18.3397 20.0002 18.2692 20.0002 18.1922V6.8077C20.0002 6.73077 19.9682 6.66024 19.9041 6.59613C19.84 6.53203 19.7694 6.49998 19.6925 6.49998H12.7502V18.5ZM5.94252 16.2499H9.30795C9.52043 16.2499 9.69855 16.1781 9.8423 16.0343C9.98605 15.8904 10.0579 15.7122 10.0579 15.4997C10.0579 15.2871 9.98605 15.109 9.8423 14.9654C9.69855 14.8218 9.52043 14.75 9.30795 14.75H5.94252C5.73002 14.75 5.5519 14.8219 5.40817 14.9657C5.26442 15.1095 5.19254 15.2877 5.19254 15.5003C5.19254 15.7129 5.26442 15.891 5.40817 16.0346C5.5519 16.1782 5.73002 16.2499 5.94252 16.2499ZM5.94252 13.2499H9.30795C9.52043 13.2499 9.69855 13.1781 9.8423 13.0343C9.98605 12.8904 10.0579 12.7122 10.0579 12.4997C10.0579 12.2871 9.98605 12.109 9.8423 11.9654C9.69855 11.8218 9.52043 11.75 9.30795 11.75H5.94252C5.73002 11.75 5.5519 11.8219 5.40817 11.9657C5.26442 12.1095 5.19254 12.2877 5.19254 12.5003C5.19254 12.7129 5.26442 12.891 5.40817 13.0346C5.5519 13.1782 5.73002 13.2499 5.94252 13.2499ZM5.94252 10.25H9.30795C9.52043 10.25 9.69855 10.178 9.8423 10.0342C9.98605 9.89043 10.0579 9.71223 10.0579 9.49965C10.0579 9.28705 9.98605 9.10896 9.8423 8.96538C9.69855 8.82179 9.52043 8.75 9.30795 8.75H5.94252C5.73002 8.75 5.5519 8.8219 5.40817 8.9657C5.26442 9.10952 5.19254 9.28772 5.19254 9.5003C5.19254 9.7129 5.26442 9.89099 5.40817 10.0346C5.5519 10.1782 5.73002 10.25 5.94252 10.25ZM14.6925 16.2499H18.0579C18.2704 16.2499 18.4485 16.1781 18.5923 16.0343C18.736 15.8904 18.8079 15.7122 18.8079 15.4997C18.8079 15.2871 18.736 15.109 18.5923 14.9654C18.4485 14.8218 18.2704 14.75 18.0579 14.75H14.6925C14.48 14.75 14.3019 14.8219 14.1581 14.9657C14.0144 15.1095 13.9425 15.2877 13.9425 15.5003C13.9425 15.7129 14.0144 15.891 14.1581 16.0346C14.3019 16.1782 14.48 16.2499 14.6925 16.2499ZM14.6925 13.2499H18.0579C18.2704 13.2499 18.4485 13.1781 18.5923 13.0343C18.736 12.8904 18.8079 12.7122 18.8079 12.4997C18.8079 12.2871 18.736 12.109 18.5923 11.9654C18.4485 11.8218 18.2704 11.75 18.0579 11.75H14.6925C14.48 11.75 14.3019 11.8219 14.1581 11.9657C14.0144 12.1095 13.9425 12.2877 13.9425 12.5003C13.9425 12.7129 14.0144 12.891 14.1581 13.0346C14.3019 13.1782 14.48 13.2499 14.6925 13.2499ZM14.6925 10.25H18.0579C18.2704 10.25 18.4485 10.178 18.5923 10.0342C18.736 9.89043 18.8079 9.71223 18.8079 9.49965C18.8079 9.28705 18.736 9.10896 18.5923 8.96538C18.4485 8.82179 18.2704 8.75 18.0579 8.75H14.6925C14.48 8.75 14.3019 8.8219 14.1581 8.9657C14.0144 9.10952 13.9425 9.28772 13.9425 9.5003C13.9425 9.7129 14.0144 9.89099 14.1581 10.0346C14.3019 10.1782 14.48 10.25 14.6925 10.25Z" fill="#FFFFFF"/></g></svg>