<svg fill="none" height="16" viewBox="0 0 16 16" width="16" xmlns="http://www.w3.org/2000/svg"><path d="M8.375 13.613H4.009c-2.183 0-2.909-1.4-2.909-2.806V5.193c0-2.106.726-2.806 2.909-2.806h4.366c2.183 0 2.909.7 2.909 2.806v5.614c0 2.106-.733 2.806-2.909 2.806z" stroke="#fff" stroke-linecap="round" stroke-linejoin="round"/><path d="M13.137 11.4l-1.854-1.3V5.893l1.854-1.3c.906-.633 1.653-.246 1.653.867v5.08c0 1.113-.747 1.5-1.653.86zM7.79 7.333a1 1 0 100-2 1 1 0 000 2z" stroke="#fff" stroke-linecap="round" stroke-linejoin="round"/></svg>