<svg fill="none" height="16" viewBox="0 0 16 16" width="16" xmlns="http://www.w3.org/2000/svg"><path d="M14.867 5.733V8.4c0 2.333-1.2 3.333-3 3.333h-6c-1.8 0-3-1-3-3.333V5.733c0-1.766.69-2.766 1.8-3.146.36-.127.762-.187 1.2-.187h6c.438 0 .84.06 1.2.187 1.11.38 1.8 1.38 1.8 3.146z" stroke="#fff" stroke-linecap="round" stroke-linejoin="round" stroke-miterlimit="10"/><path d="M6.867 7.075v-.84c0-1.038.783-1.467 1.74-.947l.771.416.77.417c.958.52.958 1.37 0 1.89l-.77.417-.77.417c-.958.52-1.741.096-1.741-.948v-.822z" stroke="#fff" stroke-linecap="round" stroke-linejoin="round" stroke-miterlimit="10"/><path d="M2.867 5.067v0c-.92 0-1.667.746-1.667 1.666v3.482a3.333 3.333 0 003.334 3.333h6.518a1.815 1.815 0 001.815-1.815v0" stroke="#fff" stroke-linecap="round"/></svg>